<?xml version="1.0" encoding="UTF-8" ?>
<svg version="1.1" width="32" height="32" xmlns="http://www.w3.org/2000/svg" shape-rendering="crispEdges">
<rect x="2" y="0" width="5" height="1" fill="#18162A" />
<rect x="15" y="0" width="2" height="1" fill="#18162A" />
<rect x="25" y="0" width="5" height="1" fill="#18162A" />
<rect x="1" y="1" width="1" height="1" fill="#18162A" />
<rect x="2" y="1" width="5" height="1" fill="#000000" />
<rect x="7" y="1" width="5" height="1" fill="#18162A" />
<rect x="14" y="1" width="1" height="1" fill="#18162A" />
<rect x="15" y="1" width="2" height="5" fill="#000000" />
<rect x="17" y="1" width="1" height="1" fill="#18162A" />
<rect x="20" y="1" width="5" height="1" fill="#18162A" />
<rect x="25" y="1" width="5" height="1" fill="#000000" />
<rect x="30" y="1" width="1" height="1" fill="#18162A" />
<rect x="1" y="2" width="1" height="3" fill="#000000" />
<rect x="2" y="2" width="4" height="1" fill="#18162A" />
<rect x="6" y="2" width="6" height="1" fill="#000000" />
<rect x="12" y="2" width="2" height="1" fill="#18162A" />
<rect x="14" y="2" width="1" height="4" fill="#000000" />
<rect x="17" y="2" width="1" height="4" fill="#000000" />
<rect x="18" y="2" width="2" height="1" fill="#18162A" />
<rect x="20" y="2" width="6" height="1" fill="#000000" />
<rect x="26" y="2" width="4" height="1" fill="#18162A" />
<rect x="30" y="2" width="1" height="3" fill="#000000" />
<rect x="2" y="3" width="4" height="2" fill="#1F1C37" />
<rect x="6" y="3" width="2" height="1" fill="#18162A" />
<rect x="8" y="3" width="6" height="1" fill="#000000" />
<rect x="18" y="3" width="6" height="1" fill="#000000" />
<rect x="24" y="3" width="2" height="1" fill="#18162A" />
<rect x="26" y="3" width="4" height="2" fill="#1F1C37" />
<rect x="6" y="4" width="1" height="6" fill="#1F1C37" />
<rect x="7" y="4" width="1" height="3" fill="#2D294F" />
<rect x="8" y="4" width="3" height="1" fill="#18162A" />
<rect x="11" y="4" width="3" height="1" fill="#000000" />
<rect x="18" y="4" width="3" height="1" fill="#000000" />
<rect x="21" y="4" width="3" height="1" fill="#18162A" />
<rect x="24" y="4" width="1" height="3" fill="#2D294F" />
<rect x="25" y="4" width="1" height="6" fill="#1F1C37" />
<rect x="0" y="5" width="1" height="2" fill="#000000" />
<rect x="1" y="5" width="3" height="2" fill="#1F1C37" />
<rect x="4" y="5" width="1" height="2" fill="#2D294F" />
<rect x="5" y="5" width="1" height="2" fill="#1F1C37" />
<rect x="8" y="5" width="2" height="9" fill="#1F1C37" />
<rect x="10" y="5" width="1" height="3" fill="#2D294F" />
<rect x="11" y="5" width="1" height="1" fill="#18162A" />
<rect x="12" y="5" width="2" height="1" fill="#000000" />
<rect x="18" y="5" width="2" height="1" fill="#000000" />
<rect x="20" y="5" width="1" height="1" fill="#18162A" />
<rect x="21" y="5" width="1" height="3" fill="#2D294F" />
<rect x="22" y="5" width="2" height="9" fill="#1F1C37" />
<rect x="26" y="5" width="1" height="2" fill="#1F1C37" />
<rect x="27" y="5" width="1" height="2" fill="#2D294F" />
<rect x="28" y="5" width="3" height="2" fill="#1F1C37" />
<rect x="31" y="5" width="1" height="2" fill="#000000" />
<rect x="11" y="6" width="1" height="9" fill="#1F1C37" />
<rect x="12" y="6" width="8" height="1" fill="#18162A" />
<rect x="20" y="6" width="1" height="9" fill="#1F1C37" />
<rect x="1" y="7" width="1" height="2" fill="#000000" />
<rect x="2" y="7" width="3" height="7" fill="#1F1C37" />
<rect x="5" y="7" width="1" height="4" fill="#2D294F" />
<rect x="7" y="7" width="1" height="4" fill="#1F1C37" />
<rect x="12" y="7" width="1" height="2" fill="#2D294F" />
<rect x="13" y="7" width="6" height="6" fill="#1F1C37" />
<rect x="19" y="7" width="1" height="2" fill="#2D294F" />
<rect x="24" y="7" width="1" height="4" fill="#1F1C37" />
<rect x="26" y="7" width="1" height="4" fill="#2D294F" />
<rect x="27" y="7" width="3" height="7" fill="#1F1C37" />
<rect x="30" y="7" width="1" height="2" fill="#000000" />
<rect x="10" y="8" width="1" height="7" fill="#1F1C37" />
<rect x="21" y="8" width="1" height="7" fill="#1F1C37" />
<rect x="12" y="9" width="1" height="5" fill="#1F1C37" />
<rect x="19" y="9" width="1" height="5" fill="#1F1C37" />
<rect x="6" y="10" width="1" height="2" fill="#2D294F" />
<rect x="25" y="10" width="1" height="2" fill="#2D294F" />
<rect x="5" y="11" width="1" height="1" fill="#3F3F74" />
<rect x="7" y="11" width="1" height="1" fill="#2D294F" />
<rect x="24" y="11" width="1" height="1" fill="#2D294F" />
<rect x="26" y="11" width="1" height="1" fill="#3F3F74" />
<rect x="1" y="12" width="1" height="3" fill="#000000" />
<rect x="5" y="12" width="1" height="16" fill="#2D294F" />
<rect x="6" y="12" width="1" height="9" fill="#3F3F74" />
<rect x="7" y="12" width="1" height="1" fill="#1F1C37" />
<rect x="24" y="12" width="1" height="1" fill="#1F1C37" />
<rect x="25" y="12" width="1" height="9" fill="#3F3F74" />
<rect x="26" y="12" width="1" height="16" fill="#2D294F" />
<rect x="30" y="12" width="1" height="3" fill="#000000" />
<rect x="7" y="13" width="1" height="4" fill="#2D294F" />
<rect x="13" y="13" width="6" height="3" fill="#2D294F" />
<rect x="24" y="13" width="1" height="4" fill="#2D294F" />
<rect x="2" y="14" width="2" height="1" fill="#1F1C37" />
<rect x="4" y="14" width="1" height="14" fill="#2D294F" />
<rect x="8" y="14" width="1" height="5" fill="#2D294F" />
<rect x="9" y="14" width="1" height="1" fill="#1F1C37" />
<rect x="12" y="14" width="1" height="4" fill="#2D294F" />
<rect x="19" y="14" width="1" height="4" fill="#2D294F" />
<rect x="22" y="14" width="1" height="1" fill="#1F1C37" />
<rect x="23" y="14" width="1" height="5" fill="#2D294F" />
<rect x="27" y="14" width="1" height="14" fill="#2D294F" />
<rect x="28" y="14" width="2" height="1" fill="#1F1C37" />
<rect x="0" y="15" width="1" height="11" fill="#000000" />
<rect x="1" y="15" width="2" height="1" fill="#1F1C37" />
<rect x="3" y="15" width="1" height="12" fill="#2D294F" />
<rect x="9" y="15" width="3" height="4" fill="#2D294F" />
<rect x="20" y="15" width="3" height="4" fill="#2D294F" />
<rect x="28" y="15" width="1" height="12" fill="#2D294F" />
<rect x="29" y="15" width="2" height="1" fill="#1F1C37" />
<rect x="31" y="15" width="1" height="11" fill="#000000" />
<rect x="1" y="16" width="1" height="3" fill="#1F1C37" />
<rect x="2" y="16" width="1" height="3" fill="#2D294F" />
<rect x="13" y="16" width="1" height="1" fill="#2D294F" />
<rect x="14" y="16" width="4" height="1" fill="#CBDBFC" />
<rect x="18" y="16" width="1" height="1" fill="#2D294F" />
<rect x="29" y="16" width="1" height="3" fill="#2D294F" />
<rect x="30" y="16" width="1" height="3" fill="#1F1C37" />
<rect x="7" y="17" width="1" height="2" fill="#3F3F74" />
<rect x="13" y="17" width="1" height="1" fill="#CBDBFC" />
<rect x="14" y="17" width="4" height="2" fill="#2D294F" />
<rect x="18" y="17" width="1" height="1" fill="#CBDBFC" />
<rect x="24" y="17" width="1" height="2" fill="#3F3F74" />
<rect x="12" y="18" width="1" height="1" fill="#CBDBFC" />
<rect x="13" y="18" width="1" height="4" fill="#2D294F" />
<rect x="18" y="18" width="1" height="4" fill="#2D294F" />
<rect x="19" y="18" width="1" height="1" fill="#CBDBFC" />
<rect x="1" y="19" width="1" height="3" fill="#000000" />
<rect x="2" y="19" width="1" height="3" fill="#1F1C37" />
<rect x="7" y="19" width="1" height="6" fill="#2D294F" />
<rect x="8" y="19" width="1" height="4" fill="#3F3F74" />
<rect x="9" y="19" width="2" height="8" fill="#2D294F" />
<rect x="11" y="19" width="1" height="2" fill="#CBDBFC" />
<rect x="12" y="19" width="1" height="2" fill="#2D294F" />
<rect x="14" y="19" width="1" height="1" fill="#CBDBFC" />
<rect x="15" y="19" width="2" height="1" fill="#2D294F" />
<rect x="17" y="19" width="1" height="1" fill="#CBDBFC" />
<rect x="19" y="19" width="1" height="2" fill="#2D294F" />
<rect x="20" y="19" width="1" height="2" fill="#CBDBFC" />
<rect x="21" y="19" width="2" height="8" fill="#2D294F" />
<rect x="23" y="19" width="1" height="4" fill="#3F3F74" />
<rect x="24" y="19" width="1" height="6" fill="#2D294F" />
<rect x="29" y="19" width="1" height="3" fill="#1F1C37" />
<rect x="30" y="19" width="1" height="3" fill="#000000" />
<rect x="14" y="20" width="1" height="2" fill="#2D294F" />
<rect x="15" y="20" width="2" height="1" fill="#CBDBFC" />
<rect x="17" y="20" width="1" height="2" fill="#2D294F" />
<rect x="6" y="21" width="1" height="2" fill="#2D294F" />
<rect x="11" y="21" width="1" height="6" fill="#2D294F" />
<rect x="12" y="21" width="1" height="1" fill="#CBDBFC" />
<rect x="15" y="21" width="2" height="1" fill="#2D294F" />
<rect x="19" y="21" width="1" height="1" fill="#CBDBFC" />
<rect x="20" y="21" width="1" height="6" fill="#2D294F" />
<rect x="25" y="21" width="1" height="2" fill="#2D294F" />
<rect x="1" y="22" width="1" height="4" fill="#1F1C37" />
<rect x="2" y="22" width="1" height="4" fill="#2D294F" />
<rect x="12" y="22" width="1" height="5" fill="#2D294F" />
<rect x="13" y="22" width="6" height="1" fill="#CBDBFC" />
<rect x="19" y="22" width="1" height="5" fill="#2D294F" />
<rect x="29" y="22" width="1" height="4" fill="#2D294F" />
<rect x="30" y="22" width="1" height="4" fill="#1F1C37" />
<rect x="6" y="23" width="1" height="4" fill="#3F3F74" />
<rect x="8" y="23" width="1" height="3" fill="#2D294F" />
<rect x="13" y="23" width="6" height="5" fill="#2D294F" />
<rect x="23" y="23" width="1" height="3" fill="#2D294F" />
<rect x="25" y="23" width="1" height="4" fill="#3F3F74" />
<rect x="7" y="25" width="1" height="1" fill="#3F3F74" />
<rect x="24" y="25" width="1" height="1" fill="#3F3F74" />
<rect x="1" y="26" width="1" height="1" fill="#000000" />
<rect x="2" y="26" width="1" height="1" fill="#1F1C37" />
<rect x="7" y="26" width="1" height="1" fill="#2D294F" />
<rect x="8" y="26" width="1" height="1" fill="#3F3F74" />
<rect x="23" y="26" width="1" height="1" fill="#3F3F74" />
<rect x="24" y="26" width="1" height="1" fill="#2D294F" />
<rect x="29" y="26" width="1" height="1" fill="#1F1C37" />
<rect x="30" y="26" width="1" height="1" fill="#000000" />
<rect x="2" y="27" width="1" height="1" fill="#000000" />
<rect x="3" y="27" width="1" height="1" fill="#1F1C37" />
<rect x="6" y="27" width="1" height="2" fill="#2D294F" />
<rect x="7" y="27" width="1" height="1" fill="#3F3F74" />
<rect x="8" y="27" width="1" height="1" fill="#2D294F" />
<rect x="9" y="27" width="4" height="2" fill="#3F3F74" />
<rect x="19" y="27" width="4" height="2" fill="#3F3F74" />
<rect x="23" y="27" width="1" height="1" fill="#2D294F" />
<rect x="24" y="27" width="1" height="1" fill="#3F3F74" />
<rect x="25" y="27" width="1" height="2" fill="#2D294F" />
<rect x="28" y="27" width="1" height="1" fill="#1F1C37" />
<rect x="29" y="27" width="1" height="1" fill="#000000" />
<rect x="3" y="28" width="1" height="1" fill="#000000" />
<rect x="4" y="28" width="2" height="1" fill="#1F1C37" />
<rect x="7" y="28" width="1" height="1" fill="#2D294F" />
<rect x="8" y="28" width="1" height="1" fill="#3F3F74" />
<rect x="13" y="28" width="6" height="2" fill="#3F3F74" />
<rect x="23" y="28" width="1" height="1" fill="#3F3F74" />
<rect x="24" y="28" width="1" height="1" fill="#2D294F" />
<rect x="26" y="28" width="2" height="1" fill="#1F1C37" />
<rect x="28" y="28" width="1" height="1" fill="#000000" />
<rect x="4" y="29" width="2" height="1" fill="#000000" />
<rect x="6" y="29" width="4" height="1" fill="#1F1C37" />
<rect x="10" y="29" width="3" height="1" fill="#2D294F" />
<rect x="19" y="29" width="3" height="1" fill="#2D294F" />
<rect x="22" y="29" width="4" height="1" fill="#1F1C37" />
<rect x="26" y="29" width="2" height="1" fill="#000000" />
<rect x="6" y="30" width="4" height="1" fill="#000000" />
<rect x="10" y="30" width="12" height="1" fill="#1F1C37" />
<rect x="22" y="30" width="4" height="1" fill="#000000" />
<rect x="10" y="31" width="12" height="1" fill="#000000" />
</svg>